<?xml version="1.0" encoding="utf-8"?>
<!-- Generator: Adobe Illustrator 22.1.0, SVG Export Plug-In . SVG Version: 6.00 Build 0)  -->
<svg version="1.1" id="Ebene_1" xmlns="http://www.w3.org/2000/svg" xmlns:xlink="http://www.w3.org/1999/xlink" x="0px" y="0px"
	 viewBox="0 0 595.3 841.9" style="enable-background:new 0 0 595.3 841.9;" xml:space="preserve">
<style type="text/css">
	.st0{fill:#1B304C;}
	.st1{fill:#BAD5F0;}
	.st2{fill:#F3BC37;}
</style>
<g>
	<circle class="st0" cx="297.4" cy="420.9" r="289.6"/>
</g>
<path class="st0" d="M297.4,219.1c-53.9,0-104.6,21-142.7,59.1S95.6,367,95.6,420.9s21,104.6,59.1,142.7
	c38.1,38.1,88.8,59.1,142.7,59.1s104.6-21,142.7-59.1s59.1-88.8,59.1-142.7s-21-104.6-59.1-142.7l0,0
	C402,240.1,351.3,219.1,297.4,219.1z"/>
<polygon class="st1" points="367.6,321.1 331.5,302.5 279.9,294.7 227.5,314.1 216.6,317.2 172.8,276.5 170.5,254.7 186.4,241.5 
	236,221.4 299.3,210.5 364.5,226 419.6,254.7 "/>
<polygon class="st1" points="222.5,519.6 258.5,538.3 310.1,546 362.5,526.6 373.4,523.5 417.2,564.3 419.6,586 403.7,599.2 
	354,619.4 290.7,630.2 225.6,614.7 170.5,586 "/>
<g>
	<path class="st0" d="M297.4,558.2c-36.7,0-71.2-14.3-97.1-40.2s-40.2-60.4-40.2-97.1s14.3-71.2,40.2-97.1
		c25.9-25.9,60.4-40.2,97.1-40.2s71.2,14.3,97.1,40.2c53.5,53.5,53.5,140.7,0,194.2C368.6,543.9,334.2,558.2,297.4,558.2z
		 M297.4,299.4c-32.5,0-63,12.6-85.9,35.6c-47.4,47.4-47.4,124.5,0,171.9c22.9,22.9,53.4,35.5,85.9,35.5s63-12.6,85.9-35.5
		c47.4-47.4,47.4-124.5,0-171.9C360.4,312,329.9,299.4,297.4,299.4z"/>
	<path class="st1" d="M297.4,548.8c-32.7,0-65.5-12.5-90.4-37.4c-49.9-49.9-49.9-131,0-180.9c24.2-24.2,56.3-37.5,90.4-37.5
		s66.3,13.3,90.4,37.5l0,0c49.9,49.9,49.9,131,0,180.9C362.9,536.3,330.2,548.8,297.4,548.8z M297.4,303.4
		c-31.4,0-60.9,12.2-83.1,34.4c-45.8,45.8-45.8,120.4,0,166.2s120.4,45.8,166.2,0s45.8-120.4,0-166.2
		C358.3,315.6,328.8,303.4,297.4,303.4z"/>
	<path class="st0" d="M297.4,629.1c-55.6,0-107.9-21.7-147.2-61s-61-91.6-61-147.2s21.7-107.9,61-147.2s91.6-61,147.2-61
		s107.9,21.7,147.2,61s61,91.6,61,147.2s-21.7,107.9-61,147.2C405.3,607.4,353,629.1,297.4,629.1z M297.4,228.5
		c-51.4,0-99.7,20-136,56.4c-36.3,36.3-56.4,84.7-56.4,136c0,51.4,20,99.7,56.4,136c36.3,36.3,84.7,56.4,136,56.4s99.7-20,136-56.4
		c36.3-36.3,56.4-84.7,56.4-136c0-51.4-20-99.7-56.4-136C397.1,248.5,348.8,228.5,297.4,228.5z"/>
	<path class="st1" d="M297.4,633.1c-56.7,0-110-22.1-150-62.2c-40.1-40.1-62.2-93.4-62.2-150c0-56.7,22.1-110,62.2-150
		c40.1-40.1,93.4-62.2,150-62.2s110,22.1,150,62.2c40.1,40.1,62.2,93.4,62.2,150c0,56.7-22.1,110-62.2,150
		C407.4,611,354.1,633.1,297.4,633.1z M297.4,219.1c-53.9,0-104.6,21-142.7,59.1S95.6,367,95.6,420.9s21,104.6,59.1,142.7
		c38.1,38.1,88.8,59.1,142.7,59.1s104.6-21,142.7-59.1s59.1-88.8,59.1-142.7s-21-104.6-59.1-142.7l0,0
		C402,240.1,351.3,219.1,297.4,219.1z"/>
</g>
<g>
	<path class="st0" d="M455.7,606.8c-4.9,0-9.6-1.2-13.8-3.4c-3.1,1.4-6.6,2.2-10.1,2.2c-7,0-13.6-3-18.2-8.3l-63-74.4
		c-12.4-14.2-11.5-35.6,1.9-48.8c6.7-6.6,15.5-10.2,24.9-10.2c8.8,0,17.3,3.3,23.9,9.2l73.2,64.4c7.1,6.5,9.5,16.4,6.8,25.2
		c6.6,11.4,4.9,26-4.9,35.6C470.7,603.8,463.4,606.8,455.7,606.8L455.7,606.8z"/>
	<path class="st1" d="M470.3,563.8c4.1-6,3.3-14.2-2.3-19.3l-73-64.3c-10.3-9.3-26-9-35.9,0.7l0,0c-9.9,9.7-10.5,25.5-1.4,35.9
		l62.9,74.3c5.6,6.4,15.3,6.8,21.4,0.9c7.8,7.3,20,7.2,27.7-0.3C477.4,584.1,477.7,571.7,470.3,563.8z"/>
	<path class="st0" d="M376.1,377.5c-9.6,0-18.7-3.8-25.4-10.7c-13.2-13.4-13.6-34.9-1-48.8l64.4-73.2c4.6-5,11.1-7.9,17.9-7.9
		c2.5,0,5,0.4,7.3,1.1c4.4-2.5,9.4-3.9,14.6-3.9c8,0,15.4,3.1,21,8.8c9.2,9.4,10.9,23.4,5,34.5c1.6,3.5,2.3,7.3,2.2,11.1
		c-0.3,6.7-3.2,12.8-8.2,17.2l-74.4,63C393,374.4,384.7,377.5,376.1,377.5L376.1,377.5z"/>
	<path class="st1" d="M357.4,360.3c9.7,9.9,25.5,10.5,35.9,1.4l74.3-62.9c6.4-5.6,6.8-15.3,0.9-21.4c7.3-7.8,7.2-20-0.3-27.7
		c-7.6-7.7-19.9-8-27.9-0.7c-6-4.1-14.2-3.3-19.3,2.3l-64.3,73.1C347.4,334.6,347.7,350.4,357.4,360.3L357.4,360.3z"/>
	<path class="st0" d="M217.5,377.9c-8.8,0-17.3-3.3-23.9-9.2l-73.2-64.4c-7.1-6.5-9.5-16.4-6.8-25.2c-6.6-11.4-4.9-26,4.9-35.6
		c5.5-5.4,12.8-8.4,20.6-8.4c4.9,0,9.6,1.2,13.8,3.4c3.1-1.4,6.6-2.2,10.1-2.2c7,0,13.6,3,18.2,8.3l63,74.4
		c12.4,14.2,11.5,35.6-1.9,48.8C235.7,374.3,226.9,377.9,217.5,377.9L217.5,377.9z"/>
	<path class="st1" d="M126.8,297.3l73.1,64.3c10.3,9.3,26,9,35.9-0.7l0,0c9.9-9.7,10.5-25.5,1.4-35.9l-62.9-74.3
		c-5.6-6.4-15.3-6.8-21.4-0.9c-7.8-7.3-20-7.2-27.7,0.3c-7.7,7.6-8,19.9-0.7,27.9C120.5,284,121.2,292.3,126.8,297.3z"/>
	<path class="st0" d="M141,607.6c-8,0-15.4-3.1-21-8.8c-9.2-9.4-10.9-23.4-5-34.5c-1.6-3.5-2.3-7.3-2.2-11.1
		c0.3-6.7,3.2-12.8,8.2-17.2l74.4-63c6.5-5.6,14.8-8.8,23.4-8.8c9.6,0,18.7,3.8,25.4,10.7c13.2,13.4,13.6,34.9,1,48.8L180.8,597
		c-4.6,5-11.1,7.9-17.9,7.9l0,0c-2.5,0-5-0.4-7.3-1.1C151.2,606.3,146.1,607.6,141,607.6z"/>
	<path class="st1" d="M201.6,480.2l-74.3,62.9c-6.4,5.6-6.8,15.3-0.9,21.4c-7.3,7.8-7.2,20,0.3,27.7c7.6,7.7,19.9,8,27.9,0.7
		c6,4.1,14.2,3.3,19.3-2.3l64.3-73.1c9.3-10.3,9-26-0.7-35.9C227.8,471.7,212,471.1,201.6,480.2z"/>
</g>
<g>
	<rect x="30.8" y="376" class="st0" width="541.2" height="89.8"/>
	<g>
		<g>
			<path class="st2" d="M49.6,456.9v-72.2h19.8v72.2H49.6z"/>
			<path class="st2" d="M101.7,421.4v35.5H81.9v-72.2h15.5l29,36.7v-36.7h19.8v72.2h-15.8L101.7,421.4z"/>
			<path class="st2" d="M214.9,402h-20.8v54.9h-19.8V402h-20.9v-17.3h61.5V402z"/>
			<path class="st2" d="M273.6,439.6v17.3h-51.5v-72.2h50.6V402H242v10.2h26.3v16.1H242v11.4L273.6,439.6L273.6,439.6z"/>
			<path class="st2" d="M282.8,456.9v-72.2H316c3.5,0,6.8,0.7,9.8,2.2s5.5,3.4,7.7,5.7c2.1,2.3,3.8,5,5,8s1.8,6.1,1.8,9.1
				c0,4.2-0.9,8.1-2.7,11.8c-1.8,3.6-4.4,6.6-7.6,8.9l15.3,26.6h-22.4l-12.7-22.2h-7.4v22.1H282.8z M302.7,417.5h12.5
				c1.2,0,2.4-0.7,3.4-2c1.1-1.4,1.6-3.3,1.6-5.7c0-2.5-0.6-4.4-1.8-5.7c-1.2-1.3-2.4-2-3.7-2h-12V417.5z"/>
			<path class="st2" d="M371.4,421.4v35.5h-19.8v-72.2H367l29,36.7v-36.7h19.8v72.2H400L371.4,421.4z"/>
			<path class="st2" d="M479.7,439.6v17.3h-51.5v-72.2h50.6V402h-30.7v10.2h26.3v16.1h-26.3v11.4L479.7,439.6L479.7,439.6z"/>
			<path class="st2" d="M545.3,402h-20.8v54.9h-19.8V402h-20.9v-17.3h61.5L545.3,402L545.3,402z"/>
		</g>
	</g>
</g>
</svg>
