<svg id="Ebene_1" data-name="Ebene 1" xmlns="http://www.w3.org/2000/svg" xmlns:xlink="http://www.w3.org/1999/xlink" viewBox="0 0 1440 900"><defs><style>.cls-1{fill:#0b2d4d;stroke:#121111;stroke-width:30px;}.cls-1,.cls-2{stroke-miterlimit:10;}.cls-2{fill:none;stroke:#b9d6f2;stroke-width:3px;}</style></defs><title>3Zeichenfläche 1</title><path class="cls-1" d="M1308.82,269.5C1213.16,202.23,1032.7,100.21,787.5,86a978.34,978.34,0,0,0-247.68,17.15,59.51,59.51,0,1,0-115,30A1061.65,1061.65,0,0,0,148.53,270.3a56.11,56.11,0,0,0-11.76,81.09L541.65,857.92A56.12,56.12,0,0,0,585.49,879H853.23a56.12,56.12,0,0,0,43.09-20.17l423.33-507.46A56.12,56.12,0,0,0,1308.82,269.5Z"/><image width="2000" height="2000" transform="translate(456.35 186.35) scale(0.26)" xlink:href="2000px-European_stars.svg.png"/><line class="cls-2" x1="549.47" y1="822" x2="583.64" y2="799.5"/><line class="cls-2" x1="539.27" y1="809" x2="573.44" y2="786.5"/><line class="cls-2" x1="529.07" y1="796" x2="563.24" y2="773.5"/><line class="cls-2" x1="518.86" y1="783" x2="553.03" y2="760.5"/><line class="cls-2" x1="508.66" y1="770" x2="542.84" y2="747.5"/><line class="cls-2" x1="498.47" y1="757" x2="532.64" y2="734.5"/><line class="cls-2" x1="488.27" y1="744" x2="522.44" y2="721.5"/><line class="cls-2" x1="478.06" y1="731" x2="512.24" y2="708.5"/><line class="cls-2" x1="467.86" y1="718" x2="502.03" y2="695.5"/><line class="cls-2" x1="457.66" y1="705" x2="491.84" y2="682.5"/><line class="cls-2" x1="447.47" y1="692" x2="481.64" y2="669.5"/><line class="cls-2" x1="437.27" y1="679" x2="471.44" y2="656.5"/><line class="cls-2" x1="427.06" y1="666" x2="461.23" y2="643.5"/><line class="cls-2" x1="416.86" y1="653" x2="451.03" y2="630.5"/><line class="cls-2" x1="406.66" y1="640" x2="440.84" y2="617.5"/><line class="cls-2" x1="396.47" y1="627" x2="430.64" y2="604.5"/><line class="cls-2" x1="386.27" y1="614" x2="420.44" y2="591.5"/><line class="cls-2" x1="376.06" y1="601" x2="410.23" y2="578.5"/><line class="cls-2" x1="365.86" y1="588" x2="400.03" y2="565.5"/><line class="cls-2" x1="355.66" y1="575" x2="389.84" y2="552.5"/><line class="cls-2" x1="345.47" y1="562" x2="379.64" y2="539.5"/><line class="cls-2" x1="335.27" y1="549" x2="369.44" y2="526.5"/><line class="cls-2" x1="325.06" y1="536" x2="359.23" y2="513.5"/><line class="cls-2" x1="314.86" y1="523" x2="349.03" y2="500.5"/><line class="cls-2" x1="304.66" y1="510" x2="338.84" y2="487.5"/><line class="cls-2" x1="294.47" y1="497" x2="328.64" y2="474.5"/><line class="cls-2" x1="284.27" y1="484" x2="318.44" y2="461.5"/><line class="cls-2" x1="274.06" y1="471" x2="308.23" y2="448.5"/><line class="cls-2" x1="263.86" y1="458" x2="298.03" y2="435.5"/><line class="cls-2" x1="253.66" y1="445" x2="287.84" y2="422.5"/><line class="cls-2" x1="243.47" y1="432" x2="277.64" y2="409.5"/><line class="cls-2" x1="233.27" y1="419" x2="267.44" y2="396.5"/><line class="cls-2" x1="223.06" y1="406" x2="257.23" y2="383.5"/><line class="cls-2" x1="212.86" y1="393" x2="247.03" y2="370.5"/><line class="cls-2" x1="202.66" y1="380" x2="236.84" y2="357.5"/><line class="cls-2" x1="192.47" y1="367" x2="226.64" y2="344.5"/><line class="cls-2" x1="182.27" y1="354" x2="216.44" y2="331.5"/><line class="cls-2" x1="172.06" y1="341" x2="206.23" y2="318.5"/><line class="cls-2" x1="161.86" y1="328" x2="196.03" y2="305.5"/><line class="cls-2" x1="854.67" y1="853.14" x2="855" y2="818"/><line class="cls-2" x1="836.67" y1="853.14" x2="837" y2="818"/><line class="cls-2" x1="818.67" y1="853.14" x2="819" y2="818"/><line class="cls-2" x1="800.67" y1="853.14" x2="801" y2="818"/><line class="cls-2" x1="782.67" y1="853.14" x2="783" y2="818"/><line class="cls-2" x1="764.67" y1="853.14" x2="765" y2="818"/><line class="cls-2" x1="746.67" y1="853.14" x2="747" y2="818"/><line class="cls-2" x1="728.67" y1="853.14" x2="729" y2="818"/><line class="cls-2" x1="710.67" y1="853.14" x2="711" y2="818"/><line class="cls-2" x1="692.67" y1="853.14" x2="693" y2="818"/><line class="cls-2" x1="674.67" y1="853.14" x2="675" y2="818"/><line class="cls-2" x1="656.67" y1="853.14" x2="657" y2="818"/><line class="cls-2" x1="638.67" y1="853.14" x2="639" y2="818"/><line class="cls-2" x1="620.67" y1="853.14" x2="621" y2="818"/><line class="cls-2" x1="602.67" y1="853.14" x2="603" y2="818"/><line class="cls-2" x1="584.67" y1="853.14" x2="585" y2="818"/></svg>