<svg xmlns="http://www.w3.org/2000/svg" viewBox="0 0 1440 900"><defs><style>.cls-1{fill:#142e4d;}.cls-2,.cls-3,.cls-4,.cls-5,.cls-6,.cls-7,.cls-8,.cls-9{fill:none;stroke-miterlimit:10;}.cls-2,.cls-3{stroke:#abddab;}.cls-2,.cls-6,.cls-7,.cls-8,.cls-9{stroke-width:15px;}.cls-3{stroke-width:4px;}.cls-4,.cls-5,.cls-8{stroke:#46e0b1;}.cls-4{stroke-width:13px;}.cls-5{stroke-width:3px;}.cls-6{stroke:#b847dd;}.cls-7{stroke:#e2bc44;}.cls-9{stroke:#c9ced6;}</style></defs><title>4Zeichenfläche 1</title><g id="Ebene_1" data-name="Ebene 1"><rect class="cls-1" x="0.5" y="0.5" width="1439" height="899"/><path d="M1439,1V899H1V1H1439m1-1H0V900H1440V0Z"/></g><g id="Ebene_4" data-name="Ebene 4"><path class="cls-2" d="M280.5-119.5c-8.73,52.22-34,242.46,82,426,172.1,272.28,498.32,281.69,524,282"/><path class="cls-2" d="M1014.79,573.9c-3.8-1.43-7.79-2.77-12-4a174.83,174.83,0,0,0-68.15-5.64l-9.14-.7-7.5,7.85L896,569.72l-.76,9.9-22.85-1.76-1.84,23.86,22.85,1.76-.76,9.9,22.09,1.7,6.21,8.91,9.14.7a174.83,174.83,0,0,0,68.2,4.88c4.3-.56,8.45-1.28,12.42-2.11l4-51.8-3.86,50Z"/><polyline class="cls-3" points="1013.12 625.36 1039.02 627.36 1042.3 584.83 1042.72 579.37 1018.35 577.49"/><line class="cls-3" x1="1025.5" y1="584.17" x2="1042.25" y2="585.46"/><line class="cls-3" x1="1024.91" y1="591.79" x2="1041.67" y2="593.08"/><line class="cls-3" x1="1024.38" y1="598.64" x2="1041.14" y2="599.93"/><line class="cls-3" x1="1023.91" y1="604.74" x2="1040.67" y2="606.03"/><line class="cls-3" x1="1023.32" y1="612.35" x2="1040.08" y2="613.64"/><line class="cls-3" x1="1022.73" y1="619.97" x2="1039.49" y2="621.26"/><path class="cls-4" d="M849.65,475.46l-21.84-37c2.31-2.45,4.78-4.9,7.43-7.32a144.72,144.72,0,0,1,48.6-29l6.54-3.85,8.44,3.1,15.8-9.31,4.18,7.08,16.34-9.64,10.06,17.06-16.34,9.64,4.18,7.08-15.8,9.31-1.37,8.88-6.54,3.85a144.72,144.72,0,0,1-48.92,28.47c-3.4,1.15-6.74,2.13-10,3l-21.84-37"/><polyline class="cls-5" points="827.14 440.63 808.62 451.74 826.55 482.66 828.85 486.63 846.28 476.18"/><line class="cls-5" x1="838.27" y1="475.02" x2="826.28" y2="482.2"/><line class="cls-5" x1="835.06" y1="469.48" x2="823.07" y2="476.66"/><line class="cls-5" x1="832.16" y1="464.49" x2="820.18" y2="471.68"/><line class="cls-5" x1="829.6" y1="460.06" x2="817.61" y2="467.24"/><line class="cls-5" x1="826.38" y1="454.52" x2="814.4" y2="461.71"/><line class="cls-5" x1="823.17" y1="448.98" x2="811.19" y2="456.17"/><path class="cls-6" d="M454.5-125.5c103,40,262.39,118,406,270,166.5,176.29,329.49,470.92,242,580-76.26,95.08-284.57-23.43-400,94-70.39,71.61-65.5,189.53-54,268"/><path class="cls-7" d="M60.5-104.5c30.53,53.78,69.78,135.34,93,240,39.62,178.55-14.45,212.29,27,327,56.24,155.63,177.44,153.54,270,346a645.31,645.31,0,0,1,55,176"/><path class="cls-8" d="M1228.5-188.5c-60.2,16.24-133.44,46.38-153,106-29.81,90.86,92.25,167.15,81,275-6.17,59.16-53.39,136.71-234,217"/><path class="cls-9" d="M911-73C879.61-60.73,728.12,2.15,668,161c-56.75,150,4.41,289.06,18,318,80.31,171,226.34,173.26,360,391a808.28,808.28,0,0,1,66,134"/></g></svg>