<?xml version="1.0" encoding="UTF-8" standalone="no"?>
<!DOCTYPE svg PUBLIC "-//W3C//DTD SVG 1.1//EN" "http://www.w3.org/Graphics/SVG/1.1/DTD/svg11.dtd">
<svg width="100%" height="100%" viewBox="0 0 160 600" version="1.1" xmlns="http://www.w3.org/2000/svg" xmlns:xlink="http://www.w3.org/1999/xlink" xml:space="preserve" xmlns:serif="http://www.serif.com/" style="fill-rule:evenodd;clip-rule:evenodd;stroke-linejoin:round;stroke-miterlimit:1.41421;">
    <g>
        <rect x="-10" y="-9" width="188" height="634" style="fill:rgb(185,214,242);"/>
        <g transform="matrix(1.48499,-0.410173,0.0335953,0.121629,-76.3435,-3.00707)">
            <rect x="-10" y="-9" width="188" height="634" style="fill:rgb(20,46,77);"/>
        </g>
        <g transform="matrix(1.48499,-0.410173,0.0335953,0.121629,-66.3435,596.993)">
            <rect x="-10" y="-9" width="188" height="634" style="fill:rgb(20,46,77);"/>
        </g>
        <g transform="matrix(1.48499,-0.410173,0.00923644,0.0334397,-47.5841,574.998)">
            <rect x="-10" y="-9" width="188" height="634" style="fill:rgb(18,17,17);"/>
        </g>
        <g transform="matrix(1.48499,-0.410173,0.00923644,0.0334397,-47.5841,64.3117)">
            <rect x="-10" y="-9" width="188" height="634" style="fill:rgb(18,17,17);"/>
        </g>
        <g transform="matrix(1.48499,-0.410173,0.00461822,0.0167198,-47.6256,69.4614)">
            <rect x="-10" y="-9" width="188" height="634" style="fill:rgb(185,214,242);"/>
        </g>
        <g transform="matrix(1.48499,-0.410173,0.00461822,0.0167198,-47.6256,580.148)">
            <rect x="-10" y="-9" width="188" height="634" style="fill:rgb(185,214,242);"/>
        </g>
    </g>
</svg>
