<?xml version="1.0" encoding="UTF-8" standalone="no"?><!DOCTYPE svg PUBLIC "-//W3C//DTD SVG 1.1//EN" "http://www.w3.org/Graphics/SVG/1.1/DTD/svg11.dtd"><svg width="100%" height="100%" viewBox="0 0 508 336" version="1.1" xmlns="http://www.w3.org/2000/svg" xmlns:xlink="http://www.w3.org/1999/xlink" xml:space="preserve" xmlns:serif="http://www.serif.com/" style="fill-rule:evenodd;clip-rule:evenodd;stroke-linejoin:round;stroke-miterlimit:1.41421;"><g><path d="M233.25,0c92.722,0 168,75.278 168,168c0,92.722 -75.278,168 -168,168c-92.722,0 -168,-75.278 -168,-168c0,-92.722 75.278,-168 168,-168Zm0,84c46.361,0 84,37.639 84,84c0,46.361 -37.639,84 -84,84c-46.361,0 -84,-37.639 -84,-84c0,-46.361 37.639,-84 84,-84Z" style="fill:#bebebe;"/><path d="M233.25,7.287c88.7,0 160.713,72.013 160.713,160.713c0,88.7 -72.013,160.713 -160.713,160.713c-88.7,0 -160.713,-72.013 -160.713,-160.713c0,-88.7 72.013,-160.713 160.713,-160.713Zm0,62.801c54.039,0 97.912,43.873 97.912,97.912c0,54.039 -43.873,97.912 -97.912,97.912c-54.039,0 -97.912,-43.873 -97.912,-97.912c0,-54.039 43.873,-97.912 97.912,-97.912Z" style="fill:#fff;"/><circle cx="102.353" cy="44.447" r="15.939" style="fill:#bebebe;"/><path d="M123.017,33.338c12.321,0 60.792,57.922 60.792,70.243c0,12.32 -10.003,22.322 -22.323,22.322c-12.32,0 -69.662,-49.051 -69.662,-61.372c0,-12.32 18.873,-31.193 31.193,-31.193Z" style="fill:#bebebe;"/><path d="M380.652,44.447c0,8.797 -7.142,15.939 -15.939,15.939c-8.797,0 -15.938,-7.142 -15.938,-15.939c0,-8.797 7.141,-15.939 15.938,-15.939c8.797,0 15.939,7.142 15.939,15.939Z" style="fill:#bebebe;"/><path d="M375.823,65.112c0,12.32 -57.923,60.791 -70.243,60.791c-12.32,0 -22.323,-10.002 -22.323,-22.322c0,-12.321 49.052,-69.663 61.372,-69.663c12.32,0 31.194,18.874 31.194,31.194Z" style="fill:#bebebe;"/><circle cx="364.713" cy="291.121" r="15.939" style="fill:#bebebe;"/><path d="M344.049,302.231c-12.32,0 -60.792,-57.923 -60.792,-70.243c0,-12.321 10.003,-22.323 22.323,-22.323c12.32,0 69.663,49.052 69.663,61.372c0,12.32 -18.874,31.194 -31.194,31.194Z" style="fill:#bebebe;"/><path d="M86.414,291.121c0,-8.797 7.142,-15.939 15.939,-15.939c8.797,0 15.939,7.142 15.939,15.939c0,8.797 -7.142,15.939 -15.939,15.939c-8.797,0 -15.939,-7.142 -15.939,-15.939Z" style="fill:#bebebe;"/><path d="M91.243,270.457c0,-12.321 57.923,-60.792 70.243,-60.792c12.32,0 22.323,10.002 22.323,22.323c0,12.32 -49.052,69.662 -61.372,69.662c-12.32,0 -31.194,-18.873 -31.194,-31.193Z" style="fill:#bebebe;"/></g></svg>