<?xml version="1.0" encoding="UTF-8" standalone="no"?><!DOCTYPE svg PUBLIC "-//W3C//DTD SVG 1.1//EN" "http://www.w3.org/Graphics/SVG/1.1/DTD/svg11.dtd"><svg width="100%" height="100%" viewBox="0 0 200 258" version="1.1" xmlns="http://www.w3.org/2000/svg" xmlns:xlink="http://www.w3.org/1999/xlink" xml:space="preserve" xmlns:serif="http://www.serif.com/" style="fill-rule:evenodd;clip-rule:evenodd;stroke-linejoin:round;stroke-miterlimit:1.41421;"><path d="M40.59,7.021c0,0 -21.214,-4.453 -27.521,-3.73c-4.338,0.497 -8.141,4.723 -10.319,8.068c-2.178,3.345 -1.891,9.379 -2.749,12.001c-0.109,0.333 8.2,-0.799 8.078,-0.463c-0.294,0.802 -7.558,1.737 -7.789,2.549c-0.093,0.327 1.025,1.559 0.94,1.885c-0.636,2.43 0.451,9.931 0.07,11.196c-0.182,0.607 0.943,0.907 1.171,1.498c0.461,1.196 1.195,6.057 1.596,5.679c0.224,-0.212 3.379,0.03 3.375,0.306c-0.005,0.268 -3.192,1.19 -3.19,1.424c0.017,3.589 5.844,5.116 9.432,5.19c4.375,0.09 16.82,-4.65 16.82,-4.65l10.086,-40.953Z" style="fill:#c4a844;"/><path d="M32.685,24.896c-4.411,-3.286 -11.868,-0.439 -16.502,0c-7.247,0.688 -6.941,17.358 -2.148,20.788c4.597,3.288 26.23,2.94 29.338,-0.524c3.108,-3.465 -6.157,-16.886 -10.688,-20.264Z" style="fill:#9e8531;"/><path d="M34.291,31.971c0,0 -18.657,0.369 -18.733,1.051c-0.06,0.543 2.141,5.26 1.555,7.414c-0.873,3.204 -1.169,4.838 -2.713,5.496c-0.814,0.347 16.967,5.402 30.231,0.891l-10.34,-14.852Z" style="fill:#89742b;"/><path d="M18.822,26.609c1.5,0.367 6.175,0.046 6.355,0.387c0.158,0.299 -4.189,-0.194 -5.448,0.922c-0.177,0.158 0.233,0.518 0.175,0.738c-0.814,3.101 1.008,12.95 0.391,16.945c-0.414,2.678 -6.738,6.437 -4.092,7.024c2.882,0.64 21.385,-3.185 21.385,-3.185l22.494,0.651c0,0 -4.177,-28.164 -12.577,-29.034c-3.881,-0.402 -26.557,2.762 -31.328,3.736c-0.379,0.078 1.607,1.561 2.645,1.816Z" style="fill:#b09537;"/><path d="M178.951,6.635c-15.185,-7.295 -136.283,-8.595 -164.676,-3.798c-1.538,0.26 -1.757,0.515 -1.757,0.515c0.563,-1.2 16.92,6.713 18.899,12.87c2.092,6.507 0.551,19.641 4.549,21.415c0.526,0.233 14.999,-0.383 14.398,0.405c-0.034,0.045 -2.772,0.052 -5.826,0.304c-2.86,0.235 -6.006,0.725 -5.994,0.812c0.521,3.994 -1.973,5.345 -2.433,6.79c-0.067,0.213 -0.009,1.658 0.023,1.821c0.26,1.307 2.89,3.099 3.398,3.865c0.742,1.121 -3.029,-0.271 -3.026,1.123c0.013,6.36 -1.047,5.728 -1.058,11.743c-0.017,9.628 -2.756,22.109 -2.829,31.84c-0.061,8.039 -5.197,35.537 -6.603,43.699c-1.844,10.709 -5.653,45.002 -6.833,51.38c-0.131,0.709 -1.148,12.539 -1.096,13.244c0.015,0.202 5.831,0.773 5.846,0.974c0.013,0.189 -5.942,0.412 -5.928,0.601c0.029,0.411 -0.109,2.999 -0.081,3.406c0.016,0.223 6.109,-0.099 6.124,0.122c0.039,0.565 -6.463,0.914 -6.426,1.468c0.499,7.59 0.162,4.552 0.63,9.901c0.317,3.618 1.142,7.218 1.277,9.804c0.363,6.938 4.789,14.949 7.686,19.373c2.202,3.364 9.101,7.071 9.697,7.171c10.822,1.82 130.315,-5.019 153.67,-3.439c4.631,0.313 8.194,-7.765 8.517,-11.019c0.388,-3.921 -2.202,-7.931 -4.85,-8.078c-3.367,-0.186 -7.284,1.185 -9.608,-0.82c-2.323,-2.005 -5.698,-6.42 -4.331,-11.209c0.166,-0.582 -9.82,-0.854 -9.655,-1.47c0.239,-0.898 8.864,-0.589 9.108,-1.559c0.217,-0.863 0.765,-1.486 0.254,-2.279c-2.285,-3.553 -3.405,-5.999 -3.323,-6.933c0.785,-8.976 1.51,-15.263 2.352,-23.942c0.061,-0.638 2.257,-3.593 1.721,-3.244c-0.268,0.175 1.928,-24 4.128,-35.814c1.303,-6.998 3.499,-26.527 4.772,-48.94c0.059,-1.041 1.95,-8.952 3.21,-10.58c0.515,-0.667 0.477,-3.208 0.476,-4.463c-0.003,-3.651 0.398,-5.99 0.026,-8.938c-0.025,-0.195 -7.627,-3.407 -7.652,-3.601c-0.053,-0.43 7.641,1.187 7.592,0.76c-0.054,-0.467 0.027,-4.018 -0.025,-4.483c-0.051,-0.452 -13.782,1.243 -13.831,0.794c-0.048,-0.434 13.702,-1.974 13.749,-2.405c0.557,-5.114 -0.303,-26.39 -4.568,-42.149c-2.252,-8.319 -6.652,-15.577 -9.693,-17.037Z" style="fill:#cdb45f;"/><path d="M194.697,235.338l-146.303,2.321c-5.323,0.581 -4.997,3.216 -5.403,4.885c-0.245,1.009 -0.444,3.804 0.152,3.112c5.6,-6.506 8.959,-6.682 7.435,3.579l5.355,0.899l-5.768,0.075c-4.839,5.612 -8.321,6.319 -11.887,7.328l153.554,-3.075c5.364,-3.603 11.655,-14.278 2.865,-19.124Z" style="fill:#d7c37f;"/><text x="55.702px" y="49.57px" style="font-family:'Raleway-ExtraBoldItalic', 'Raleway', sans-serif;font-weight:800;font-style:italic;font-size:31.411px;">Artikel13</text><path d="M129.166,58.072l-69.306,0l-0.891,4.197l69.306,0l0.891,-4.197Z" style="fill:#89742b;"/><path d="M121.818,139.417l-69.306,0l-0.374,4.197l69.306,0l0.374,-4.197Z" style="fill:#89742b;"/><path d="M173.808,58.072l-38.587,0l-0.891,4.197l38.587,0l0.891,-4.197Z" style="fill:#89742b;"/><path d="M166.461,139.417l-38.588,0l-0.374,4.197l38.588,0l0.374,-4.197Z" style="fill:#89742b;"/><path d="M107.277,67.505l-49.781,0l-0.582,4.198l49.782,0l0.581,-4.198Z" style="fill:#89742b;"/><path d="M101.092,148.85l-49.782,0l-0.064,4.198l49.781,0l0.065,-4.198Z" style="fill:#89742b;"/><path d="M103.38,103.001l-49.782,0l-0.072,4.198l49.781,0l0.073,-4.198Z" style="fill:#89742b;"/><path d="M99.134,215.605l-49.781,0l0.654,4.197l49.781,0l-0.654,-4.197Z" style="fill:#89742b;"/><path d="M99.134,169.756l-49.781,0l0.215,4.197l49.782,0l-0.216,-4.197Z" style="fill:#89742b;"/><path d="M165.769,85.733l-14.578,0l-0.581,4.197l14.577,0l0.582,-4.197Z" style="fill:#89742b;"/><path d="M158.537,198.337l-14.578,0l0.145,4.197l14.577,0l-0.144,-4.197Z" style="fill:#89742b;"/><path d="M52.441,121.398l14.577,0l-0.191,4.197l-14.577,0l0.191,-4.197Z" style="fill:#89742b;"/><path d="M48.351,188.153l14.577,0l0.097,4.197l-14.578,0l-0.096,-4.197Z" style="fill:#89742b;"/><path d="M86.239,77.418l-30.135,0l-0.582,4.198l30.135,0l0.582,-4.198Z" style="fill:#89742b;"/><path d="M81.275,158.763l-30.136,0l-0.064,4.198l30.135,0l0.065,-4.198Z" style="fill:#89742b;"/><path d="M83.545,112.914l-30.136,0l-0.072,4.198l30.135,0l0.073,-4.198Z" style="fill:#89742b;"/><path d="M78.874,179.669l-30.136,0l0.215,4.197l30.136,0l-0.215,-4.197Z" style="fill:#89742b;"/><path d="M158.189,77.418l-66.134,0l-0.582,4.198l66.135,0l0.581,-4.198Z" style="fill:#89742b;"/><path d="M153.225,158.763l-66.135,0l-0.064,4.198l66.134,0l0.065,-4.198Z" style="fill:#89742b;"/><path d="M155.495,112.914l-66.135,0l-0.072,4.198l66.134,0l0.073,-4.198Z" style="fill:#89742b;"/><path d="M150.824,179.669l-66.135,0l0.215,4.197l66.135,0l-0.215,-4.197Z" style="fill:#89742b;"/><path d="M165.055,93.766l-110.862,0l0.132,4.197l110.862,0l-0.132,-4.197Z" style="fill:#89742b;"/><path d="M159.213,206.37l-110.862,0l0.858,4.197l110.862,0l-0.858,-4.197Z" style="fill:#89742b;"/><path d="M121.241,85.733l-66.466,0l-0.582,4.197l66.466,0l0.582,-4.197Z" style="fill:#89742b;"/><path d="M114.009,198.337l-66.466,0l0.144,4.197l66.466,0l-0.144,-4.197Z" style="fill:#89742b;"/><path d="M94.873,121.398l66.465,0l-0.191,4.197l-66.466,0l0.192,-4.197Z" style="fill:#89742b;"/><path d="M90.782,188.153l66.466,0l0.097,4.197l-66.466,0l-0.097,-4.197Z" style="fill:#89742b;"/><path d="M149.251,67.505l-36.686,0l-0.582,4.198l36.686,0l0.582,-4.198Z" style="fill:#89742b;"/><path d="M143.065,148.85l-36.686,0l-0.064,4.198l36.685,0l0.065,-4.198Z" style="fill:#89742b;"/><path d="M145.353,103.001l-36.686,0l-0.072,4.198l36.686,0l0.072,-4.198Z" style="fill:#89742b;"/><path d="M141.108,215.605l-36.686,0l0.654,4.197l36.686,0l-0.654,-4.197Z" style="fill:#89742b;"/><path d="M142.256,169.756l-36.685,0l0.215,4.197l36.685,0l-0.215,-4.197Z" style="fill:#89742b;"/><path d="M89.008,130.383l-36.686,0l-0.072,4.197l36.685,0l0.073,-4.197Z" style="fill:#89742b;"/><path d="M169.941,67.505l-17.776,0l-0.581,4.198l17.775,0l0.582,-4.198Z" style="fill:#89742b;"/><path d="M163.756,148.85l-17.776,0l-0.065,4.198l17.776,0l0.065,-4.198Z" style="fill:#89742b;"/><path d="M166.043,103.001l-17.775,0l-0.073,4.198l17.776,0l0.072,-4.198Z" style="fill:#89742b;"/><path d="M161.798,215.605l-17.775,0l0.653,4.197l17.776,0l-0.654,-4.197Z" style="fill:#89742b;"/><path d="M162.947,169.756l-17.776,0l0.215,4.197l17.776,0l-0.215,-4.197Z" style="fill:#89742b;"/><path d="M144.882,85.733l-17.776,0l-0.582,4.197l17.776,0l0.582,-4.197Z" style="fill:#89742b;"/><path d="M137.65,198.337l-17.776,0l0.144,4.197l17.776,0l-0.144,-4.197Z" style="fill:#89742b;"/><path d="M118.23,130.383l-24.848,0l-0.301,4.197l24.847,0l0.302,-4.197Z" style="fill:#89742b;"/><path d="M71.232,121.398l17.776,0l-0.192,4.197l-17.775,0l0.191,-4.197Z" style="fill:#89742b;"/><path d="M67.142,188.153l17.776,0l0.096,4.197l-17.776,0l-0.096,-4.197Z" style="fill:#89742b;"/></svg>