<?xml version="1.0" encoding="UTF-8" standalone="no"?><!DOCTYPE svg PUBLIC "-//W3C//DTD SVG 1.1//EN" "http://www.w3.org/Graphics/SVG/1.1/DTD/svg11.dtd"><svg width="100%" height="100%" viewBox="0 0 190 169" version="1.1" xmlns="http://www.w3.org/2000/svg" xmlns:xlink="http://www.w3.org/1999/xlink" xml:space="preserve" xmlns:serif="http://www.serif.com/" style="fill-rule:evenodd;clip-rule:evenodd;stroke-linejoin:round;stroke-miterlimit:1.41421;"><g id="Körper"><path d="M115.573,0l-55.987,3.727l10.505,157.819l55.987,-3.726l-10.505,-157.82Z" style="fill:#3c3c3c;"/><path d="M189.939,36.828l-189.939,12.643l42.607,118.564l114.21,-6.489l33.122,-124.718Z" style="fill:#7b7b7b;"/><path d="M58.06,67.562c4.6,-0.2 8.638,6.58 9.011,15.132c0.373,8.552 -3.059,15.658 -7.66,15.858c-4.601,0.201 -8.639,-6.579 -9.012,-15.131c-0.373,-8.552 3.06,-15.658 7.661,-15.859Z" style="fill:#7b2424;"/><path d="M35.428,69.595c4.6,-0.201 8.638,6.579 9.011,15.131c0.373,8.552 -3.06,15.658 -7.66,15.859c-4.601,0.2 -8.639,-6.58 -9.012,-15.132c-0.373,-8.552 3.06,-15.658 7.661,-15.858Z" style="fill:#7b2424;"/><path d="M172.785,67.945c-0.237,-4.149 -3.797,-7.327 -7.947,-7.09l-52.009,2.96c-4.149,0.236 -7.326,3.797 -7.09,7.946l0.856,15.037c0.236,4.15 3.797,7.327 7.946,7.091l52.009,-2.96c4.15,-0.237 7.327,-3.797 7.091,-7.947l-0.856,-15.037Z" style="fill:#790e0e;"/><path d="M170.903,69.121c-0.209,-3.671 -3.359,-6.482 -7.03,-6.273l-49.859,2.838c-3.671,0.209 -6.481,3.359 -6.273,7.03l0.758,13.302c0.209,3.671 3.359,6.482 7.03,6.273l49.859,-2.838c3.671,-0.209 6.481,-3.359 6.272,-7.03l-0.757,-13.302Z" style="fill:#fff;"/><g transform="matrix(0.998474,-0.0552201,0.0552201,0.998474,8.78717,-9.3736)"><text x="97.503px" y="101.626px" style="font-family:'Raleway-Bold', 'Raleway', sans-serif;font-weight:700;font-size:21.251px;">F<tspan x="108.022px " y="101.626px ">.</tspan>Ilt<tspan x="133.502px " y="101.626px ">e</tspan>r</text></g></g></svg>