<?xml version="1.0" encoding="UTF-8" standalone="no"?><!DOCTYPE svg PUBLIC "-//W3C//DTD SVG 1.1//EN" "http://www.w3.org/Graphics/SVG/1.1/DTD/svg11.dtd"><svg width="100%" height="100%" viewBox="0 0 243 202" version="1.1" xmlns="http://www.w3.org/2000/svg" xmlns:xlink="http://www.w3.org/1999/xlink" xml:space="preserve" xmlns:serif="http://www.serif.com/" style="fill-rule:evenodd;clip-rule:evenodd;stroke-linejoin:round;stroke-miterlimit:1.41421;"><g id="LeftArm"><path d="M99.634,67.907c22.449,20.794 110.771,77.462 138.488,96.214c10.927,7.393 -3.181,42.881 -14.833,36.694c-37.252,-19.778 -138.885,-88.624 -150.2,-113.07c-4.64,-10.024 18.441,-27.344 26.545,-19.838Z" style="fill:#3c3c3c;"/><g><path d="M83.035,52.563l-24.166,37.671l21.891,14.042l24.165,-37.671l-21.89,-14.042Z" style="fill:#989898;"/><path d="M74.297,71.313l-48.291,11.012l6.296,27.607l48.29,-11.012l-6.295,-27.607Z" style="fill:#989898;"/><path d="M53.715,91.544l-32.198,-37.637l-21.517,18.408l32.198,37.637l21.517,-18.408Z" style="fill:#989898;"/><path d="M65.075,74.295l9.63,-48.585l27.776,5.506l-9.63,48.585l-27.776,-5.506Z" style="fill:#989898;"/><path d="M84.711,53.145l-38.54,-31.112l17.787,-22.033l38.539,31.112l-17.786,22.033Z" style="fill:#989898;"/></g></g></svg>