<?xml version="1.0" encoding="UTF-8" standalone="no"?><!DOCTYPE svg PUBLIC "-//W3C//DTD SVG 1.1//EN" "http://www.w3.org/Graphics/SVG/1.1/DTD/svg11.dtd"><svg width="100%" height="100%" viewBox="0 0 157 172" version="1.1" xmlns="http://www.w3.org/2000/svg" xmlns:xlink="http://www.w3.org/1999/xlink" xml:space="preserve" xmlns:serif="http://www.serif.com/" style="fill-rule:evenodd;clip-rule:evenodd;stroke-linejoin:round;stroke-miterlimit:1.41421;"><g id="Kopf"><path d="M47.379,11.137l-16.337,13.331l-31.042,115.353l18.901,16.09l65.44,15.815l41.162,-7.12l30.731,-127.163l-108.855,-26.306Z" style="fill:#7b7b7b;"/><path d="M48.251,0l6.886,46.196l29.836,5.909l9.871,-40.845l-46.593,-11.26Z" style="fill:#989898;"/><path d="M14.388,129.61l28.469,-37.027l28.948,9.336l-11.224,40.494l-46.193,-12.803Z" style="fill:#989898;"/><path d="M42.604,65.765c1.878,-5.995 55.89,-2.078 61.886,-0.2c5.995,1.878 9.338,8.271 7.46,14.267c-1.878,5.995 -8.271,9.338 -14.267,7.46c-5.995,-1.878 -56.957,-15.531 -55.079,-21.527Z" style="fill:#535353;"/><path d="M40.426,119.523c0,0 8.359,-19.5 14.354,-17.621c5.996,1.878 9.339,8.27 7.461,14.266c-1.879,5.996 -8.271,9.338 -14.267,7.46c-5.995,-1.878 -7.548,-4.105 -7.548,-4.105Z" style="fill:#b60404;"/><path d="M66.023,13.797c0,0 -2.504,21.066 3.628,22.436c6.132,1.369 12.222,-2.498 13.591,-8.63c1.369,-6.132 -2.497,-12.222 -8.629,-13.591c-6.132,-1.369 -8.59,-0.215 -8.59,-0.215Z" style="fill:#b60404;"/></g></svg>