<?xml version="1.0" encoding="UTF-8" standalone="no"?><!DOCTYPE svg PUBLIC "-//W3C//DTD SVG 1.1//EN" "http://www.w3.org/Graphics/SVG/1.1/DTD/svg11.dtd"><svg width="100%" height="100%" viewBox="0 0 461 260" version="1.1" xmlns="http://www.w3.org/2000/svg" xmlns:xlink="http://www.w3.org/1999/xlink" xml:space="preserve" xmlns:serif="http://www.serif.com/" style="fill-rule:evenodd;clip-rule:evenodd;stroke-linejoin:round;stroke-miterlimit:1.41421;"><g id="RightArm"><path d="M361.051,96.64c-22.449,20.794 -110.772,77.462 -138.489,96.214c-10.927,7.393 3.181,42.881 14.834,36.694c37.251,-19.778 138.884,-88.624 150.199,-113.07c4.64,-10.024 -18.441,-27.344 -26.544,-19.838Z" style="fill:#3c3c3c;"/><g><path d="M397.111,114.179l-32.611,-30.652l-17.812,18.95l32.611,30.652l17.812,-18.95Z" style="fill:#989898;"/><path d="M380.278,102.157l-1.987,-49.491l-28.293,1.136l1.986,49.491l28.294,-1.136Z" style="fill:#989898;"/><path d="M364.156,78.219l42.894,-24.765l-14.158,-24.522l-42.894,24.765l14.158,24.522Z" style="fill:#989898;"/><path d="M379.034,92.544l46.001,18.361l-10.497,26.299l-46.001,-18.361l10.497,-26.299Z" style="fill:#989898;"/><path d="M396.233,115.72l37.64,-32.193l18.405,21.518l-37.641,32.194l-18.404,-21.519Z" style="fill:#989898;"/></g></g></svg>